<?xml version="1.0" encoding="UTF-8"?>
<svg width="700pt" height="700pt" version="1.1" viewBox="0 0 700 700" xmlns="http://www.w3.org/2000/svg">
 <path d="m206.53 35c-56.121 0-101.53 45.477-101.53 101.59v286.86c0 56.121 45.41 101.54 101.53 101.54h286.88c56.121 0 101.59-45.426 101.59-101.54v-286.86c0-56.121-45.473-101.59-101.59-101.59zm0 16.898h286.88c47.051 0 84.68 37.648 84.68 84.699v286.86c0 47.051-37.629 84.633-84.68 84.633h-286.88c-47.051 0-84.633-37.582-84.633-84.633v-286.86c0-47.051 37.582-84.699 84.633-84.699zm-27.82 28.25c-7.3125 0-14.645 2.8594-20.195 8.4141-11.098 11.094-11.098 29.332 0 40.426l32.805 32.738-32.805 32.805c-11.102 11.098-11.102 29.375 0 40.477 11.098 11.102 29.309 11.102 40.41 0l32.805-32.805 32.805 32.805c11.102 11.102 29.309 11.102 40.41 0 11.102-11.098 11.102-29.375 0-40.477l-32.805-32.738 32.805-32.805c11.098-11.094 11.098-29.332 0-40.426-11.098-11.098-29.309-11.098-40.41 0l-32.805 32.754-32.805-32.754c-5.543-5.543-12.902-8.4141-20.215-8.4141zm236.55 0c-7.3125 0-14.645 2.8594-20.195 8.4141-11.098 11.094-11.098 29.332 0 40.426l32.738 32.738-32.738 32.805c-11.102 11.098-11.102 29.375 0 40.477 11.098 11.102 29.309 11.102 40.41 0l32.805-32.805 32.805 32.805c11.102 11.102 29.309 11.102 40.41 0 11.098-11.098 11.098-29.375 0-40.477l-32.738-32.805 32.738-32.738c11.094-11.094 11.094-29.332 0-40.426-11.098-11.098-29.309-11.098-40.41 0l-32.805 32.754-32.805-32.754c-5.543-5.543-12.902-8.4141-20.215-8.4141zm-130.55 16.812c2.9609 0 5.9062 1.1719 8.25 3.5156 4.6914 4.6914 4.6914 11.844 0 16.535l-38.727 38.793v-0.003907c-3.2773 3.2969-3.2773 8.6172 0 11.914l38.727 38.793c4.6875 4.6875 4.6875 11.832 0 16.516-4.6836 4.6875-11.832 4.6875-16.516 0l-38.727-38.727c-1.5859-1.5938-3.7422-2.4883-5.9922-2.4883-2.2461 0-4.4023 0.89453-5.9883 2.4883l-38.727 38.727c-4.6875 4.6875-11.898 4.6875-16.582 0-4.6836-4.6875-4.6836-11.832 0-16.516l38.793-38.793h-0.003906c3.2773-3.2969 3.2773-8.6172 0-11.914l-38.793-38.793c-4.6914-4.6914-4.6914-11.844 0-16.535 2.3398-2.3398 5.293-3.4141 8.2852-3.4141v-0.015625c2.9883 0 5.9492 1.0859 8.3008 3.4336l38.727 38.727v-0.003906c1.5781 1.6055 3.7266 2.5117 5.9766 2.5234 2.2461 0.015625 4.4062-0.87109 6.0039-2.457l38.727-38.793c2.3438-2.3438 5.3047-3.5156 8.2656-3.5156zm236.54 0c2.9609 0 5.9258 1.1719 8.2656 3.5156 4.6914 4.6914 4.6914 11.844 0 16.535l-38.727 38.793v-0.003907c-3.2734 3.2969-3.2734 8.6172 0 11.914l38.727 38.793c4.6875 4.6875 4.6875 11.832 0 16.516-4.6875 4.6875-11.832 4.6875-16.516 0l-38.727-38.727c-1.5859-1.5938-3.7422-2.4883-5.9883-2.4883-2.25 0-4.4062 0.89453-5.9922 2.4883l-38.727 38.727c-4.6875 4.6875-11.914 4.6875-16.598 0-4.6875-4.6875-4.6875-11.832 0-16.516l38.793-38.793c3.2734-3.2969 3.2734-8.6172 0-11.914l-38.793-38.793c-4.6914-4.6914-4.6914-11.844 0-16.535 2.3398-2.3398 5.3125-3.4141 8.3008-3.4141v-0.015625c2.9883 0 5.9492 1.0859 8.3008 3.4336l38.727 38.727-0.003906-0.003906c1.5781 1.6055 3.7266 2.5117 5.9766 2.5234 2.25 0.015625 4.4102-0.87109 6.0039-2.457l38.727-38.793c2.3438-2.3438 5.2891-3.5156 8.25-3.5156zm-171.92 235.02c-19.949 0.097657-39.871 4.1016-57.852 11.98-35.957 15.758-59.215 45.562-58.691 78.691-0.015625 4.3477 3.2773 7.9961 7.6055 8.4297 2.4219 0.24609 4.832-0.57031 6.6133-2.2305 1.7812-1.6641 2.7539-4.0117 2.6758-6.4492-0.39844-25.035 17.285-49.262 48.594-62.984 31.309-13.723 70.863-13.898 102.4-0.44141 31.539 13.453 49.633 37.516 49.633 62.555-0.046876 2.2734 0.82031 4.4688 2.4102 6.0938s3.7656 2.5391 6.0391 2.5391c2.2734 0 4.4492-0.91406 6.0391-2.5391 1.5898-1.625 2.457-3.8203 2.4102-6.0938 0-33.129-23.676-62.695-59.863-78.129-18.094-7.7148-38.066-11.52-58.016-11.418z"/>
</svg>
