<?xml version="1.0" standalone="no"?>
<!DOCTYPE svg PUBLIC "-//W3C//DTD SVG 20010904//EN"
 "http://www.w3.org/TR/2001/REC-SVG-20010904/DTD/svg10.dtd">
<svg version="1.0" xmlns="http://www.w3.org/2000/svg"
 width="22.000000pt" height="26.000000pt" viewBox="0 0 22.000000 26.000000"
 preserveAspectRatio="xMidYMid meet">
<metadata>
Created by potrace 1.16, written by Peter Selinger 2001-2019
</metadata>
<g transform="translate(0.000000,26.000000) scale(0.100000,-0.100000)"
fill="#000000" stroke="none">
<path d="M137 249 c-10 -6 -22 -20 -26 -31 -5 -14 -18 -21 -41 -23 -42 -4 -60
-27 -60 -79 0 -41 30 -105 50 -107 13 -1 97 -1 110 0 5 1 17 12 26 26 16 24
16 28 -2 60 -17 32 -17 35 -1 53 23 25 22 31 -11 43 -24 8 -28 14 -24 39 5 33
4 34 -21 19z"/>
</g>
</svg>
